<svg width="658" height="658" viewBox="0 0 658 658" fill="none" xmlns="http://www.w3.org/2000/svg">
<g clip-path="url(#clip0_855_58)">
<path d="M439.544 0C619.442 0 658 38.5575 658 218.456V439.544C658 619.442 619.442 658 439.544 658H218.456C38.5575 658 0 619.442 0 439.544V218.456C0 38.5575 38.5575 0 218.456 0H439.544Z" fill="#0043BA"/>
<path fill-rule="evenodd" clip-rule="evenodd" d="M94.7969 238.943C94.7969 224.006 105.227 211.898 118.094 211.898H307.415C320.282 211.898 330.712 224.006 330.712 238.943C330.712 253.88 320.282 265.988 307.415 265.988H260.821C247.954 265.988 237.524 278.096 237.524 293.033C237.524 307.97 247.954 320.078 260.821 320.078H414.712C427.579 320.078 438.01 307.97 438.01 293.033C438.01 278.096 427.579 265.988 414.712 265.988H392.003C379.136 265.988 368.705 253.88 368.705 238.943C368.705 224.006 379.136 211.898 392.003 211.898H539.906C552.773 211.898 563.204 224.006 563.204 238.943C563.204 253.88 552.773 265.988 539.906 265.988H522.374H497.547C484.68 265.988 474.25 278.096 474.25 293.033C474.25 307.97 484.68 320.078 497.547 320.078H507.206C520.073 320.078 530.503 332.186 530.503 347.123C530.503 362.06 520.073 374.168 507.206 374.168H372.601H371.658C358.791 374.168 348.361 386.276 348.361 401.213C348.361 416.15 358.791 428.258 371.658 428.258H396.485C409.352 428.258 419.782 440.366 419.782 455.303C419.782 470.24 409.352 482.348 396.485 482.348H261.995C249.128 482.348 238.698 470.24 238.698 455.303C238.698 440.366 249.128 428.258 261.995 428.258H272.35H290.941C303.808 428.258 314.238 416.15 314.238 401.213C314.238 386.276 303.808 374.168 290.941 374.168H203.872H164.688C151.821 374.168 141.391 362.06 141.391 347.123C141.391 332.186 151.821 320.078 164.688 320.078H171.867H172.809C185.676 320.078 196.107 307.97 196.107 293.033C196.107 278.096 185.676 265.988 172.809 265.988H126.215H118.094C105.227 265.988 94.7969 253.88 94.7969 238.943Z" fill="white"/>
</g>
<defs>
<clipPath id="clip0_855_58">
<rect width="658" height="658" fill="white"/>
</clipPath>
</defs>
</svg>
