<svg width="1767" height="658" viewBox="0 0 1767 658" fill="none" xmlns="http://www.w3.org/2000/svg">
<g clip-path="url(#clip0_854_2)">
<path d="M1550.63 335.897V296.927H1611.3V334.911C1611.3 352.34 1615.74 364.837 1624.62 372.401C1633.83 379.965 1646.49 383.747 1662.61 383.747C1673.13 383.747 1682.01 382.76 1689.24 380.787C1696.48 378.814 1701.91 376.676 1705.52 374.374V296.927H1766.2V379.307C1766.2 386.871 1764.88 393.284 1762.25 398.545C1759.95 403.478 1755.35 408.082 1748.44 412.358C1738.9 417.948 1726.73 422.552 1711.94 426.17C1697.47 430.116 1680.86 432.089 1662.11 432.089C1639.42 432.089 1619.69 428.801 1602.92 422.223C1586.15 415.646 1573.16 405.287 1563.95 391.146C1555.07 376.676 1550.63 358.26 1550.63 335.897ZM1766.2 320.605H1705.52V192.35C1708.15 191.692 1711.94 191.034 1716.87 190.376C1722.13 189.39 1727.56 188.896 1733.15 188.896C1744.66 188.896 1753.04 190.87 1758.31 194.816C1763.57 198.762 1766.2 206.162 1766.2 217.014V320.605ZM1611.3 320.605H1550.63V192.35C1553.26 191.692 1557.04 191.034 1561.98 190.376C1566.91 189.39 1572.33 188.896 1578.25 188.896C1589.76 188.896 1598.15 190.87 1603.41 194.816C1608.67 198.762 1611.3 206.162 1611.3 217.014V320.605Z" fill="white"/>
<path d="M1499.94 359.082C1499.94 382.103 1491.39 400.19 1474.29 413.344C1457.19 426.17 1432.36 432.583 1399.8 432.583C1373.5 432.583 1351.96 428.636 1335.18 420.744C1318.41 412.851 1310.03 402.327 1310.03 389.173C1310.03 383.582 1311.34 378.485 1313.97 373.881C1316.6 368.948 1320.06 365.166 1324.33 362.535C1333.54 368.455 1344.23 373.717 1356.4 378.321C1368.56 382.925 1382.38 385.227 1397.83 385.227C1425.78 385.227 1439.76 376.676 1439.76 359.576C1439.76 352.341 1437.3 346.586 1432.36 342.31C1427.43 337.706 1419.87 334.418 1409.67 332.445L1381.55 325.045C1357.55 319.783 1339.62 311.562 1327.78 300.381C1316.27 289.199 1310.52 274.236 1310.52 255.491C1310.52 234.773 1319.07 217.836 1336.17 204.682C1353.27 191.199 1376.95 184.457 1407.2 184.457C1422.99 184.457 1437.13 186.101 1449.63 189.39C1462.12 192.35 1471.83 196.789 1478.73 202.709C1485.97 208.628 1489.58 215.699 1489.58 223.92C1489.58 229.511 1488.27 234.608 1485.64 239.212C1483.34 243.488 1480.21 246.776 1476.27 249.078C1472.32 246.776 1466.89 244.31 1459.99 241.679C1453.41 238.719 1445.85 236.417 1437.3 234.773C1428.74 232.8 1420.19 231.813 1411.64 231.813C1398.82 231.813 1388.62 233.951 1381.06 238.226C1373.82 242.172 1370.21 247.927 1370.21 255.491C1370.21 261.082 1372.35 265.85 1376.62 269.796C1380.9 273.743 1388.13 276.867 1398.33 279.169L1423.48 285.089C1450.12 291.337 1469.52 300.545 1481.69 312.713C1493.86 324.552 1499.94 340.008 1499.94 359.082Z" fill="white"/>
<path d="M1153.91 386.214C1163.77 386.214 1172.65 385.228 1180.55 383.254C1188.44 381.281 1194.19 379.144 1197.81 376.842V320.606L1148.97 325.539C1135.49 326.526 1125.13 329.486 1117.9 334.419C1110.99 339.023 1107.54 345.929 1107.54 355.137C1107.54 364.674 1111.32 372.238 1118.88 377.828C1126.45 383.419 1138.12 386.214 1153.91 386.214ZM1151.44 184.951C1183.67 184.951 1209.32 191.857 1228.39 205.669C1247.47 219.153 1257.01 240.529 1257.01 269.797V383.254C1257.01 391.147 1255.03 397.395 1251.09 401.999C1247.47 406.604 1242.7 410.714 1236.78 414.332C1227.57 419.594 1215.9 423.869 1201.76 427.157C1187.62 430.775 1171.67 432.584 1153.91 432.584C1121.02 432.584 1095.21 426.335 1076.46 413.838C1057.72 401.013 1048.34 382.103 1048.34 357.11C1048.34 335.076 1055.25 318.304 1069.06 306.794C1083.2 294.955 1103.59 287.72 1130.23 285.089L1197.32 278.183V269.304C1197.32 256.15 1192.71 246.613 1183.51 240.693C1174.63 234.774 1161.96 231.814 1145.52 231.814C1132.7 231.814 1120.2 233.458 1108.03 236.747C1095.86 240.035 1085.01 243.982 1075.47 248.586C1072.19 245.955 1069.23 242.337 1066.6 237.733C1063.96 233.129 1062.65 228.361 1062.65 223.428C1062.65 211.589 1069.23 202.874 1082.38 197.283C1091.59 193.008 1102.28 189.884 1114.44 187.911C1126.94 185.938 1139.27 184.951 1151.44 184.951Z" fill="white"/>
<path d="M852.622 369.438C847.36 358.585 841.276 345.102 834.37 328.988C827.793 312.545 820.887 293.635 813.652 272.259C806.417 250.555 799.017 226.712 791.454 200.732C795.071 196.786 799.675 193.497 805.266 190.866C810.856 188.235 816.94 186.92 823.518 186.92C832.068 186.92 838.974 188.893 844.236 192.839C849.826 196.457 854.102 203.199 857.061 213.064C865.612 238.716 874.162 264.038 882.713 289.031C891.592 314.025 900.964 339.511 910.83 365.491H912.803C919.052 351.022 925.3 334.085 931.548 314.682C937.797 294.951 943.716 274.561 949.307 253.514C955.226 232.467 960.159 212.407 964.106 193.333C968.052 191.36 972.163 189.88 976.438 188.893C980.713 187.578 985.317 186.92 990.25 186.92C998.472 186.92 1005.54 188.893 1011.46 192.839C1017.71 196.457 1020.83 202.705 1020.83 211.584C1020.83 219.477 1019.35 230.001 1016.39 243.155C1013.76 255.981 1009.98 270.286 1005.05 286.072C1000.12 301.857 994.361 318.3 987.784 335.401C981.535 352.501 974.794 369.109 967.559 385.223C960.653 401.008 953.582 415.314 946.347 428.139C929.575 458.066 914.119 480.593 899.978 495.72C885.837 511.177 872.189 518.905 859.035 518.905C848.84 518.905 840.454 515.781 833.877 509.533C827.628 503.613 823.846 496.214 822.531 487.334C829.766 481.086 837.33 473.522 845.222 464.643C853.444 456.093 861.337 446.885 868.9 437.019C876.464 427.153 882.877 417.452 888.139 407.915C882.548 406.27 876.957 402.982 871.367 398.049C865.776 392.787 859.528 383.25 852.622 369.438Z" fill="white"/>
<path d="M439.544 0C619.442 0 658 38.5575 658 218.456V439.544C658 619.442 619.442 658 439.544 658H218.456C38.5575 658 0 619.442 0 439.544V218.456C0 38.5575 38.5575 0 218.456 0H439.544Z" fill="#0043BA"/>
<path fill-rule="evenodd" clip-rule="evenodd" d="M94.7969 238.943C94.7969 224.006 105.227 211.898 118.094 211.898H307.415C320.282 211.898 330.712 224.006 330.712 238.943C330.712 253.88 320.282 265.988 307.415 265.988H260.821C247.954 265.988 237.524 278.096 237.524 293.033C237.524 307.97 247.954 320.078 260.821 320.078H414.712C427.579 320.078 438.01 307.97 438.01 293.033C438.01 278.096 427.579 265.988 414.712 265.988H392.003C379.136 265.988 368.705 253.88 368.705 238.943C368.705 224.006 379.136 211.898 392.003 211.898H539.906C552.773 211.898 563.204 224.006 563.204 238.943C563.204 253.88 552.773 265.988 539.906 265.988H522.374H497.547C484.68 265.988 474.25 278.096 474.25 293.033C474.25 307.97 484.68 320.078 497.547 320.078H507.206C520.073 320.078 530.503 332.186 530.503 347.123C530.503 362.06 520.073 374.168 507.206 374.168H372.601H371.658C358.791 374.168 348.361 386.276 348.361 401.213C348.361 416.15 358.791 428.258 371.658 428.258H396.485C409.352 428.258 419.782 440.366 419.782 455.303C419.782 470.24 409.352 482.348 396.485 482.348H261.995C249.128 482.348 238.698 470.24 238.698 455.303C238.698 440.366 249.128 428.258 261.995 428.258H272.35H290.941C303.808 428.258 314.238 416.15 314.238 401.213C314.238 386.276 303.808 374.168 290.941 374.168H203.872H164.688C151.821 374.168 141.391 362.06 141.391 347.123C141.391 332.186 151.821 320.078 164.688 320.078H171.867H172.809C185.676 320.078 196.107 307.97 196.107 293.033C196.107 278.096 185.676 265.988 172.809 265.988H126.215H118.094C105.227 265.988 94.7969 253.88 94.7969 238.943Z" fill="white"/>
</g>
<defs>
<clipPath id="clip0_854_2">
<rect width="1767" height="658" fill="white"/>
</clipPath>
</defs>
</svg>
